<?xml version="1.0" standalone="no"?>
<!DOCTYPE svg PUBLIC "-//W3C//DTD SVG 20010904//EN"
 "http://www.w3.org/TR/2001/REC-SVG-20010904/DTD/svg10.dtd">
<svg version="1.0" xmlns="http://www.w3.org/2000/svg"
 width="512.000000pt" height="512.000000pt" viewBox="0 0 512.000000 512.000000"
 preserveAspectRatio="xMidYMid meet">

<g transform="translate(0.000000,512.000000) scale(0.100000,-0.100000)"
fill="#000000" stroke="none">
<path d="M2475 4587 c-90 -30 -153 -83 -196 -167 -32 -60 -34 -206 -5 -259
l18 -34 -398 -398 -399 -399 -723 0 -723 0 -24 -25 -25 -24 0 -281 0 -281 25
-24 c29 -30 64 -32 98 -4 l27 20 2 232 3 232 2405 0 2405 0 0 -1250 0 -1250
-202 -3 -202 -2 -21 -28 c-26 -32 -21 -78 11 -104 19 -16 48 -18 271 -18 l249
0 24 25 25 24 0 1356 0 1356 -25 24 -24 25 -723 0 -723 0 -398 398 -397 397
21 55 c57 148 -19 326 -165 391 -61 26 -157 34 -211 16z m165 -169 c52 -36 72
-70 73 -124 1 -98 -59 -159 -155 -159 -42 0 -64 5 -85 21 -123 92 -65 284 87
284 32 0 57 -7 80 -22z m-80 -440 c46 0 83 7 113 20 l44 20 344 -344 344 -344
-845 0 -845 0 344 344 344 344 44 -20 c30 -13 67 -20 113 -20z"/>
<path d="M25 2545 l-25 -24 0 -976 0 -976 25 -24 24 -25 2161 0 2161 0 24 25
c32 31 33 74 2 103 l-23 22 -2110 2 -2109 3 -3 927 -2 927 -26 20 c-35 28 -69
26 -99 -4z"/>
<path d="M1994 2354 c-44 -15 -64 -37 -64 -72 0 -13 50 -106 110 -207 61 -102
110 -187 110 -190 0 -2 -52 -89 -115 -192 -63 -104 -115 -195 -115 -204 0 -44
84 -99 129 -84 13 4 57 71 119 181 l99 175 97 -170 c54 -94 106 -176 117 -182
42 -22 129 32 129 79 0 14 -48 104 -111 206 -62 100 -112 186 -112 191 0 6 50
94 112 196 61 103 111 194 111 202 0 25 -42 67 -75 75 -62 17 -72 7 -169 -165
-50 -89 -94 -164 -97 -167 -3 -3 -41 58 -84 137 -119 215 -119 216 -191 191z"/>
<path d="M1086 2339 l-26 -20 0 -435 c0 -421 1 -435 20 -454 19 -19 33 -20
278 -20 293 0 292 0 292 77 0 70 -9 73 -223 73 l-187 0 0 130 0 130 109 0
c119 0 132 6 133 57 1 16 -4 39 -11 51 -11 21 -19 22 -121 22 l-110 0 0 130 0
130 195 0 c219 0 215 -1 215 78 0 71 -3 72 -287 72 -238 0 -252 -1 -277 -21z"/>
<path d="M2970 2347 l-25 -13 -3 -446 -2 -447 25 -17 c33 -21 113 -14 132 12
10 14 13 109 13 448 0 237 -4 436 -8 442 -22 33 -88 43 -132 21z"/>
<path d="M3438 2349 c-20 -11 -33 -67 -23 -98 14 -45 31 -51 136 -51 l99 0 0
-374 0 -375 26 -20 c38 -30 98 -28 129 4 l25 24 0 371 0 370 98 0 c84 0 101 3
116 19 28 31 31 82 6 114 l-21 27 -287 0 c-172 0 -294 -5 -304 -11z"/>
</g>
</svg>
